<svg width="327" height="168" viewBox="0 0 327 168" fill="none" xmlns="http://www.w3.org/2000/svg">
<rect x="84" y="6.5" width="156" height="156" rx="46.8" fill="#7A68FF"/>
<path d="M118.59 127.229C113.06 127.229 107.906 126.239 103.127 124.259C98.4168 122.279 94.2525 119.515 90.6344 115.965C87.0845 112.415 84.2856 108.251 82.2376 103.472C80.2579 98.6933 79.268 93.4709 79.268 87.8048C79.268 82.1387 80.2579 76.9163 82.2376 72.1376C84.2856 67.2907 87.0845 63.1264 90.6344 59.6448C94.1843 56.0949 98.3485 53.3643 103.127 51.4528C107.906 49.4731 113.06 48.4832 118.59 48.4832C124.187 48.4832 129.342 49.4731 134.052 51.4528C138.831 53.3643 142.995 56.0949 146.545 59.6448C150.163 63.1947 152.962 67.3589 154.942 72.1376C156.921 76.9163 157.911 82.1387 157.911 87.8048C157.911 93.4709 156.887 98.6933 154.839 103.472C152.859 108.251 150.095 112.415 146.545 115.965C142.995 119.515 138.831 122.279 134.052 124.259C129.273 126.239 124.119 127.229 118.59 127.229ZM118.59 116.17C122.549 116.17 126.167 115.453 129.444 114.019C132.789 112.586 135.69 110.606 138.148 108.08C140.606 105.486 142.517 102.482 143.882 99.0688C145.248 95.5872 145.93 91.8325 145.93 87.8048C145.93 83.7771 145.248 80.0565 143.882 76.6432C142.517 73.2299 140.606 70.2261 138.148 67.632C135.69 65.0379 132.789 63.024 129.444 61.5904C126.167 60.1568 122.549 59.44 118.59 59.44C114.63 59.44 110.978 60.1568 107.633 61.5904C104.356 63.024 101.489 65.0379 99.0312 67.632C96.5736 70.2261 94.6621 73.2299 93.2968 76.6432C91.9997 80.0565 91.3512 83.7771 91.3512 87.8048C91.3512 91.8325 91.9997 95.5872 93.2968 99.0688C94.6621 102.482 96.5736 105.486 99.0312 108.08C101.489 110.606 104.39 112.586 107.735 114.019C111.08 115.453 114.698 116.17 118.59 116.17ZM137.738 135.216L112.753 95.4848H125.655L150.743 135.216H137.738ZM205.418 127.229C199.888 127.229 194.734 126.239 189.955 124.259C185.245 122.279 181.081 119.515 177.462 115.965C173.913 112.415 171.114 108.251 169.066 103.472C167.086 98.6933 166.096 93.4709 166.096 87.8048C166.096 82.1387 167.086 76.9163 169.066 72.1376C171.114 67.2907 173.913 63.1264 177.462 59.6448C181.012 56.0949 185.177 53.3643 189.955 51.4528C194.734 49.4731 199.888 48.4832 205.418 48.4832C211.015 48.4832 216.17 49.4731 220.88 51.4528C225.659 53.3643 229.823 56.0949 233.373 59.6448C236.991 63.1947 239.79 67.3589 241.77 72.1376C243.749 76.9163 244.739 82.1387 244.739 87.8048C244.739 93.4709 243.715 98.6933 241.667 103.472C239.687 108.251 236.923 112.415 233.373 115.965C229.823 119.515 225.659 122.279 220.88 124.259C216.101 126.239 210.947 127.229 205.418 127.229ZM205.418 116.17C209.377 116.17 212.995 115.453 216.272 114.019C219.617 112.586 222.518 110.606 224.976 108.08C227.434 105.486 229.345 102.482 230.71 99.0688C232.076 95.5872 232.758 91.8325 232.758 87.8048C232.758 83.7771 232.076 80.0565 230.71 76.6432C229.345 73.2299 227.434 70.2261 224.976 67.632C222.518 65.0379 219.617 63.024 216.272 61.5904C212.995 60.1568 209.377 59.44 205.418 59.44C201.458 59.44 197.806 60.1568 194.461 61.5904C191.184 63.024 188.317 65.0379 185.859 67.632C183.402 70.2261 181.49 73.2299 180.125 76.6432C178.828 80.0565 178.179 83.7771 178.179 87.8048C178.179 91.8325 178.828 95.5872 180.125 99.0688C181.49 102.482 183.402 105.486 185.859 108.08C188.317 110.606 191.218 112.586 194.563 114.019C197.908 115.453 201.526 116.17 205.418 116.17ZM224.566 135.216L199.581 95.4848H212.483L237.571 135.216H224.566Z" fill="#FCFCFC"/>
</svg>
